<?xml version="1.0" standalone="no"?>
<!DOCTYPE svg PUBLIC "-//W3C//DTD SVG 20010904//EN"
 "http://www.w3.org/TR/2001/REC-SVG-20010904/DTD/svg10.dtd">
<svg version="1.0" xmlns="http://www.w3.org/2000/svg"
 width="2100.000000pt" height="2100.000000pt" viewBox="0 0 2100.000000 2100.000000"
 preserveAspectRatio="xMidYMid meet">

<g transform="translate(0.000000,2100.000000) scale(0.100000,-0.100000)"
fill="#000000" stroke="none">
<path d="M11230 17850 c-179 -38 -317 -115 -440 -247 -159 -170 -224 -336
-224 -568 0 -155 17 -229 90 -390 2 -5 -265 -279 -594 -608 l-598 -598 -57 26
c-94 43 -186 66 -297 72 -235 13 -437 -60 -608 -222 -129 -121 -199 -237 -243
-400 -28 -105 -31 -297 -6 -400 23 -94 104 -256 165 -331 l49 -60 -406 -581
c-223 -320 -411 -582 -418 -582 -6 -1 -47 12 -90 29 -43 16 -202 74 -353 129
-151 54 -282 102 -291 106 -13 5 -22 -10 -43 -69 -24 -69 -27 -93 -35 -307
-14 -391 8 -746 65 -1040 63 -325 138 -531 339 -924 557 -1087 1311 -1794
2275 -2129 730 -255 1569 -284 2550 -90 283 56 831 290 1206 516 887 533 1449
1283 1684 2247 117 485 148 1062 89 1681 -10 106 -35 238 -49 253 -4 5 -216
-48 -471 -117 -255 -68 -516 -138 -579 -155 -108 -28 -791 -211 -1650 -442
-206 -55 -667 -179 -1025 -274 -357 -96 -766 -205 -908 -244 l-259 -70 -166
60 c-92 33 -351 128 -577 210 -225 83 -576 211 -780 285 -203 75 -389 143
-413 151 -23 9 -44 19 -46 22 -2 3 168 251 378 551 364 519 384 545 412 543
146 -9 285 -3 359 16 353 93 599 384 630 747 11 131 -21 306 -77 418 l-20 39
599 599 598 598 71 -30 c39 -16 102 -37 140 -47 93 -22 286 -22 374 1 207 53
386 176 501 342 48 70 105 201 124 284 23 100 23 271 0 370 -19 85 -77 215
-126 287 -187 273 -530 412 -849 343z m309 -349 c80 -25 148 -70 214 -140 238
-258 126 -678 -210 -790 -124 -42 -295 -22 -403 47 -75 47 -147 129 -188 211
l-37 75 0 131 0 131 38 76 c63 128 193 239 313 267 71 16 207 13 273 -8z
m-2374 -2316 c230 -49 385 -243 385 -480 0 -144 -47 -252 -154 -353 -194 -184
-500 -174 -684 23 -93 99 -131 197 -132 336 -1 264 213 479 485 488 17 0 61
-6 100 -14z m5434 -2657 c3 -711 -153 -1342 -460 -1858 l-41 -69 -96 35 c-395
145 -2299 839 -2679 977 -199 73 -359 135 -355 139 4 3 61 21 127 38 103 27
1390 380 2635 722 201 55 475 130 610 167 l245 66 7 -35 c4 -19 7 -101 7 -182z
m-7064 -163 c99 -35 212 -74 250 -88 39 -14 225 -80 415 -147 571 -202 652
-230 725 -256 72 -26 192 -69 1080 -382 281 -99 638 -226 795 -282 157 -56
328 -116 380 -135 52 -18 442 -155 865 -305 424 -150 806 -285 850 -301 427
-150 850 -300 853 -304 7 -7 -165 -171 -273 -260 -239 -197 -515 -370 -823
-518 l-124 -59 -191 67 c-106 37 -273 96 -372 130 -282 98 -971 340 -1170 410
-369 130 -560 197 -1800 632 -698 245 -1278 450 -1289 455 -27 15 -220 419
-266 558 -59 175 -112 458 -130 689 -14 192 -15 183 18 170 15 -6 108 -39 207
-74z m1306 -2246 c1260 -441 2041 -715 2801 -982 65 -22 116 -42 114 -44 -6
-6 -113 -23 -276 -43 -452 -57 -891 -50 -1305 21 -479 81 -942 277 -1325 558
-204 150 -478 411 -635 606 -113 140 -109 135 -98 135 5 0 331 -113 724 -251z"/>
<path d="M13570 16130 c-218 -58 -416 -227 -498 -425 -46 -110 -56 -166 -56
-295 0 -106 5 -138 27 -211 l26 -87 -539 -542 c-420 -424 -542 -541 -557 -537
-10 4 -52 19 -93 34 -67 24 -89 27 -200 28 -113 0 -133 -3 -206 -29 -257 -91
-424 -325 -424 -596 0 -182 55 -316 185 -445 102 -103 205 -156 346 -181 138
-24 238 -8 379 58 69 33 100 56 167 123 129 130 187 271 185 450 -1 44 -9 112
-20 152 l-18 72 543 543 543 543 38 -22 c57 -35 180 -72 270 -83 155 -17 333
21 468 101 73 43 199 169 243 242 159 267 145 589 -37 833 -90 120 -211 207
-367 262 -100 35 -297 41 -405 12z m362 -328 c121 -59 202 -157 234 -282 90
-353 -275 -651 -602 -490 -297 146 -329 549 -58 736 86 59 143 75 260 72 90
-3 107 -7 166 -36z m-2096 -2025 c133 -68 215 -229 185 -366 -42 -196 -213
-317 -398 -282 -193 38 -312 204 -282 395 21 128 114 236 239 277 14 5 66 7
115 6 74 -3 99 -8 141 -30z"/>
<path d="M1990 6125 l0 -275 485 0 485 0 0 -1315 0 -1315 335 0 335 0 0 1315
0 1315 485 0 485 0 0 275 0 275 -1305 0 -1305 0 0 -275z"/>
<path d="M13341 6378 c-7 -18 -627 -1816 -1012 -2930 l-78 -228 359 0 359 0
117 360 118 360 576 0 576 0 117 -360 118 -360 359 0 359 0 -70 203 c-39 111
-285 825 -547 1587 l-478 1385 -432 3 -432 2 -9 -22z m647 -1300 c105 -326
192 -596 192 -600 0 -5 -180 -8 -401 -8 -344 0 -400 2 -397 14 2 8 89 278 193
600 140 431 194 586 205 586 11 0 65 -153 208 -592z"/>
<path d="M17110 4810 l0 -1590 330 0 330 0 0 378 0 377 90 102 89 103 44 -63
c24 -34 167 -244 317 -467 150 -223 278 -411 284 -418 9 -9 96 -12 394 -10
l382 3 -461 670 c-392 570 -459 672 -450 687 6 10 197 235 424 501 226 265
418 490 426 500 13 16 -7 17 -365 16 l-379 0 -376 -447 c-254 -303 -382 -448
-397 -450 l-22 -3 0 850 0 851 -330 0 -330 0 0 -1590z"/>
<path d="M11090 5885 l0 -285 -160 0 -160 0 0 -245 0 -245 159 0 160 0 3 -697
c4 -692 4 -699 27 -773 33 -111 78 -187 151 -260 146 -146 384 -214 663 -189
114 10 285 43 300 58 7 7 -84 475 -95 486 -2 2 -21 0 -43 -5 -56 -13 -170 -12
-217 2 -21 6 -52 25 -69 42 -58 60 -59 70 -59 733 l0 603 225 0 225 0 0 245 0
245 -222 2 -223 3 -3 283 -2 282 -330 0 -330 0 0 -285z"/>
<path d="M5710 5629 c-76 -8 -162 -37 -228 -75 -102 -59 -212 -202 -252 -326
-6 -21 -18 -38 -26 -38 -12 0 -14 34 -14 205 l0 205 -320 0 -320 0 0 -1190 0
-1190 330 0 329 0 3 733 3 732 26 66 c50 129 150 230 277 280 81 33 261 33
341 1 30 -12 56 -21 57 -19 4 4 194 529 194 537 0 11 -91 48 -157 64 -78 19
-164 24 -243 15z"/>
<path d="M16620 5630 c-224 -26 -407 -180 -479 -402 -7 -21 -19 -38 -27 -38
-12 0 -14 34 -14 205 l0 205 -320 0 -320 0 0 -1190 0 -1190 330 0 330 0 1 713
c0 640 2 719 17 778 44 167 171 291 345 336 81 20 211 13 286 -17 29 -11 55
-19 56 -18 2 2 46 124 100 272 76 212 94 271 83 277 -24 16 -121 50 -167 59
-75 14 -152 18 -221 10z"/>
<path d="M9410 5615 c-305 -45 -555 -191 -670 -390 -50 -88 -71 -169 -77 -296
-16 -334 140 -545 492 -665 55 -18 213 -56 350 -84 371 -75 420 -90 490 -152
48 -42 67 -82 67 -139 0 -95 -72 -171 -202 -215 -85 -29 -304 -26 -382 4 -111
45 -181 109 -214 200 -10 26 -20 51 -24 55 -6 6 -640 -20 -647 -26 -7 -8 52
-197 77 -247 127 -251 354 -399 715 -467 120 -23 412 -22 545 0 265 45 463
138 606 284 114 117 175 241 194 397 36 289 -107 518 -400 641 -105 45 -182
65 -500 130 -151 31 -306 69 -345 83 -165 64 -220 200 -129 319 37 48 152 101
247 112 215 25 379 -53 454 -216 l26 -56 106 6 c58 4 193 12 299 19 l193 11
-6 41 c-22 136 -101 292 -198 390 -144 145 -320 227 -567 262 -116 17 -385 16
-500 -1z"/>
<path d="M6200 4818 c0 -777 4 -899 35 -1023 71 -280 246 -478 500 -565 98
-33 104 -34 265 -35 143 0 176 3 244 23 208 60 370 192 458 374 16 33 34 58
43 58 13 0 15 -30 15 -215 l0 -215 315 0 315 0 0 1190 0 1190 -330 0 -330 0 0
-726 c0 -817 0 -814 -70 -923 -39 -60 -112 -123 -185 -158 -72 -35 -129 -46
-233 -41 -84 3 -106 8 -156 33 -63 32 -135 104 -168 169 -53 103 -52 87 -55
894 l-4 752 -329 0 -330 0 0 -782z"/>
<path d="M4042 2634 c-28 -19 -30 -74 -4 -97 40 -37 112 -6 112 47 0 27 -42
66 -69 66 -9 0 -27 -7 -39 -16z"/>
<path d="M17566 2629 c-31 -25 -34 -61 -6 -89 29 -29 74 -26 99 7 24 30 20 58
-11 86 -27 22 -49 22 -82 -4z"/>
<path d="M2540 2199 l0 -421 203 4 c177 3 207 6 247 24 120 55 165 201 96 318
-23 40 -87 86 -120 86 -28 0 -18 15 19 28 76 28 114 114 95 210 -10 47 -20 65
-59 103 -63 61 -100 69 -310 69 l-171 0 0 -421z m387 311 c61 -37 82 -124 44
-186 -33 -55 -91 -74 -219 -74 l-112 0 0 140 0 140 128 0 c108 0 132 -3 159
-20z m12 -370 c52 -26 81 -75 81 -135 0 -104 -58 -135 -250 -135 l-130 0 0
145 0 145 130 0 c110 0 137 -3 169 -20z"/>
<path d="M4350 2200 l0 -420 50 0 50 0 0 420 0 420 -50 0 -50 0 0 -420z"/>
<path d="M5100 2463 l0 -158 -35 42 c-87 103 -252 95 -349 -18 -52 -61 -71
-126 -70 -239 1 -124 25 -189 93 -253 52 -49 99 -67 174 -67 65 0 106 19 150
70 l37 44 0 -52 0 -52 50 0 50 0 0 420 0 420 -50 0 -50 0 0 -157z m-100 -148
c65 -33 100 -111 100 -218 0 -94 -17 -143 -65 -193 -70 -72 -173 -70 -238 6
-42 50 -57 98 -57 187 0 150 63 233 178 233 29 0 66 -7 82 -15z"/>
<path d="M9322 2308 c3 -304 4 -314 27 -365 27 -61 84 -116 150 -147 66 -30
235 -31 302 0 66 31 114 78 146 142 l28 57 3 313 4 312 -51 0 -50 0 -3 -307
c-3 -264 -5 -312 -20 -338 -51 -93 -176 -137 -291 -103 -55 17 -122 82 -136
133 -7 25 -11 150 -11 328 l0 287 -51 0 -50 0 3 -312z"/>
<path d="M10930 2200 l0 -420 50 0 50 0 0 420 0 420 -50 0 -50 0 0 -420z"/>
<path d="M12680 2200 l0 -420 45 0 45 0 0 118 0 118 34 33 34 33 94 -119 c52
-65 105 -133 118 -150 22 -31 28 -33 82 -33 32 0 58 2 58 5 0 3 -63 85 -140
182 l-141 177 133 133 133 133 -60 0 -60 0 -133 -140 c-74 -77 -138 -140 -143
-140 -5 0 -9 101 -9 245 l0 245 -45 0 -45 0 0 -420z"/>
<path d="M18580 2200 l0 -420 45 0 45 0 0 420 0 420 -45 0 -45 0 0 -420z"/>
<path d="M5840 2485 l0 -75 -45 0 -45 0 0 -40 0 -40 44 0 45 0 3 -222 c3 -211
4 -225 26 -259 12 -20 39 -45 60 -55 35 -17 134 -25 147 -12 3 3 3 23 -1 45
-6 39 -6 40 -52 40 -35 0 -49 5 -64 22 -16 21 -18 44 -18 232 l0 209 65 0 65
0 0 40 0 40 -65 0 -65 0 0 75 0 75 -50 0 -50 0 0 -75z"/>
<path d="M8160 2485 l0 -75 -50 0 -50 0 0 -40 0 -40 50 0 50 0 0 -224 c0 -215
1 -224 23 -256 33 -51 82 -75 149 -75 31 0 59 3 62 5 3 3 0 24 -5 46 -10 40
-12 41 -51 41 -27 0 -46 7 -61 22 -21 20 -22 32 -25 231 l-3 210 70 0 71 0 0
40 0 40 -70 0 -70 0 0 75 0 75 -45 0 -45 0 0 -75z"/>
<path d="M15240 2485 l0 -75 -45 0 -45 0 0 -40 0 -40 44 0 45 0 3 -222 c3
-211 4 -225 26 -259 12 -20 39 -45 60 -55 35 -17 134 -25 147 -12 3 3 3 23 -1
45 -6 39 -6 40 -52 40 -35 0 -49 5 -64 22 -16 21 -18 44 -18 232 l0 209 65 0
65 0 0 40 0 40 -65 0 -65 0 0 75 0 75 -50 0 -50 0 0 -75z"/>
<path d="M17140 2485 l0 -75 -50 0 -50 0 0 -40 0 -40 50 0 50 0 0 -224 c0
-215 1 -224 23 -256 33 -51 82 -75 149 -75 31 0 59 3 62 5 3 3 0 24 -5 46 -10
40 -12 41 -51 41 -27 0 -46 7 -61 22 -21 20 -22 32 -25 231 l-3 210 70 0 71 0
0 40 0 40 -70 0 -70 0 0 75 0 75 -45 0 -45 0 0 -75z"/>
<path d="M6455 2406 c-17 -7 -45 -30 -63 -50 l-32 -37 0 46 0 45 -45 0 -45 0
0 -315 0 -315 45 0 45 0 0 218 c0 193 2 221 19 252 26 49 92 83 153 77 46 -4
46 -4 61 35 16 38 15 39 -9 48 -35 14 -93 12 -129 -4z"/>
<path d="M7592 2402 c-60 -22 -94 -50 -116 -97 -36 -74 -6 -164 67 -205 22
-13 83 -34 136 -46 79 -20 101 -30 124 -55 22 -24 27 -37 22 -58 -9 -38 -57
-78 -104 -86 -84 -14 -149 13 -186 79 -9 16 -15 17 -53 6 -38 -10 -42 -14 -36
-33 23 -76 103 -128 209 -135 157 -10 265 64 265 182 0 96 -46 140 -184 176
-152 39 -199 75 -176 134 37 99 229 95 262 -5 4 -11 88 6 88 17 0 28 -63 100
-108 123 -43 22 -152 24 -210 3z"/>
<path d="M10415 2406 c-22 -8 -54 -31 -71 -50 -17 -20 -34 -36 -38 -36 -3 0
-6 20 -6 45 l0 45 -45 0 -45 0 0 -315 0 -315 50 0 50 0 0 218 c0 187 2 222 18
252 27 54 74 80 143 80 51 0 63 -4 93 -30 48 -42 56 -91 56 -325 l0 -195 46 0
45 0 -3 248 c-3 242 -3 248 -28 292 -46 81 -169 121 -265 86z"/>
<path d="M11410 2400 c-70 -24 -140 -97 -166 -172 -26 -76 -24 -205 5 -280 47
-121 150 -185 280 -176 109 8 187 62 233 163 20 43 23 66 23 160 0 100 -2 115
-28 167 -65 133 -203 188 -347 138z m191 -93 c69 -46 108 -148 95 -251 -8 -68
-50 -150 -89 -175 -65 -40 -153 -36 -211 10 -94 74 -102 298 -14 388 41 42 60
50 129 50 42 1 64 -5 90 -22z"/>
<path d="M12146 2404 c-67 -21 -136 -92 -165 -170 -20 -50 -22 -74 -19 -159 3
-84 8 -108 31 -151 32 -62 102 -126 155 -142 139 -42 293 25 330 143 l10 35
-48 0 c-39 0 -50 -4 -55 -19 -10 -33 -71 -79 -113 -86 -118 -20 -209 70 -220
215 -11 154 66 260 188 260 67 0 114 -26 139 -77 14 -29 21 -33 58 -33 23 0
44 4 47 8 10 17 -43 110 -77 137 -70 53 -168 67 -261 39z"/>
<path d="M13938 2410 c-39 -12 -81 -44 -98 -74 -20 -39 -30 -31 -30 24 l0 50
-45 0 -45 0 0 -435 0 -435 45 0 45 0 0 173 1 172 37 -42 c49 -55 88 -73 160
-73 46 0 72 6 113 28 106 55 154 159 147 316 -3 80 -8 102 -36 159 -24 48 -45
75 -75 96 -68 46 -150 62 -219 41z m154 -105 c15 -11 39 -42 55 -70 24 -44 28
-61 28 -135 0 -141 -55 -226 -158 -245 -49 -9 -118 16 -152 56 -85 102 -65
329 36 397 29 20 44 23 99 20 45 -2 73 -10 92 -23z"/>
<path d="M14626 2404 c-67 -21 -136 -92 -165 -170 -20 -50 -22 -74 -19 -159 3
-83 8 -108 30 -150 52 -99 138 -154 242 -155 83 0 131 17 186 67 84 75 117
185 99 321 -27 194 -190 302 -373 246z m205 -109 c71 -68 97 -187 65 -298 -38
-132 -167 -184 -277 -112 -97 63 -118 277 -38 380 41 51 77 66 151 63 59 -3
71 -7 99 -33z"/>
<path d="M15828 2407 c-71 -23 -123 -70 -159 -143 -32 -65 -34 -75 -34 -174 0
-128 23 -189 92 -250 61 -53 127 -74 217 -68 76 5 123 24 169 67 27 25 62 79
55 86 -2 2 -20 8 -41 13 -37 11 -40 10 -75 -28 -101 -105 -274 -61 -317 82 -8
28 -15 55 -15 60 0 4 104 8 231 8 l232 0 -5 78 c-6 98 -37 171 -91 218 -68 57
-173 78 -259 51z m172 -99 c46 -32 71 -68 80 -117 l7 -41 -182 0 -183 0 7 33
c13 56 52 105 106 135 37 21 128 14 165 -10z"/>
<path d="M16600 2414 c-58 -24 -84 -41 -106 -73 l-24 -36 0 53 0 52 -45 0 -45
0 0 -315 0 -315 45 0 45 0 0 213 c0 241 8 276 72 315 44 27 127 30 168 6 60
-36 65 -57 68 -306 l3 -228 45 0 45 0 -3 254 -3 254 -30 43 c-16 23 -48 51
-69 63 -39 20 -136 31 -166 20z"/>
<path d="M18030 2407 c-64 -18 -115 -52 -141 -93 -12 -19 -20 -37 -18 -38 2
-2 21 -11 42 -20 39 -16 39 -16 64 15 14 16 37 36 52 43 63 32 155 26 193 -12
22 -21 40 -88 32 -114 -6 -21 -15 -24 -149 -43 -124 -18 -204 -50 -231 -90
-10 -15 -20 -53 -22 -85 -8 -115 64 -191 190 -198 83 -5 146 15 182 59 14 16
27 29 30 29 3 0 6 -18 6 -40 l0 -40 46 0 45 0 -3 253 -3 254 -28 42 c-49 74
-179 109 -287 78z m230 -359 c0 -69 -17 -113 -59 -151 -107 -97 -301 -27 -252
91 16 38 54 59 136 72 39 7 88 16 110 20 66 13 65 13 65 -32z"/>
<path d="M3320 2179 c0 -154 4 -245 12 -273 43 -144 250 -180 345 -61 15 19
31 35 36 35 4 0 7 -22 7 -50 l0 -50 45 0 45 0 0 315 0 315 -45 0 -45 0 0 -187
c0 -200 -7 -251 -38 -292 -67 -90 -209 -83 -253 12 -16 37 -19 67 -19 255 l0
212 -45 0 -45 0 0 -231z"/>
<path d="M4040 2095 l0 -315 45 0 45 0 0 315 0 315 -45 0 -45 0 0 -315z"/>
<path d="M6752 2168 c4 -259 8 -281 56 -331 41 -44 81 -60 147 -61 71 -1 140
33 174 86 l21 33 0 -57 0 -58 50 0 50 0 0 315 0 315 -50 0 -50 0 0 -205 c0
-227 -5 -252 -59 -298 -80 -67 -183 -51 -227 35 -11 21 -14 78 -14 248 l0 220
-51 0 -51 0 4 -242z"/>
<path d="M17560 2095 l0 -315 45 0 45 0 0 315 0 315 -45 0 -45 0 0 -315z"/>
<path d="M8602 1900 c-28 -26 -29 -80 -4 -103 28 -25 87 -22 106 5 23 32 20
71 -7 96 -29 28 -67 28 -95 2z"/>
<path d="M18916 1899 c-52 -41 -24 -119 43 -119 46 0 71 24 71 68 0 64 -62 92
-114 51z"/>
</g>
</svg>
